<svg width="29" height="39" viewBox="0 0 29 39" fill="none" xmlns="http://www.w3.org/2000/svg">
<path d="M6.3666 27.9C6.55327 27.9 6.69994 27.96 6.8066 28.08C6.91994 28.1933 6.9766 28.3467 6.9766 28.54V34.41C6.9766 34.6033 6.91994 34.76 6.8066 34.88C6.69327 35 6.5466 35.06 6.3666 35.06C6.15327 35.06 5.98994 34.9833 5.8766 34.83L2.2266 30.08V34.41C2.2266 34.6033 2.17327 34.76 2.0666 34.88C1.95993 35 1.81327 35.06 1.6266 35.06C1.43993 35.06 1.29327 35 1.1866 34.88C1.07993 34.76 1.0266 34.6033 1.0266 34.41V28.54C1.0266 28.3467 1.08327 28.1933 1.1966 28.08C1.30993 27.96 1.45993 27.9 1.6466 27.9C1.85327 27.9 2.01327 27.9767 2.1266 28.13L5.7666 32.86V28.54C5.7666 28.3467 5.81994 28.1933 5.9266 28.08C6.03994 27.96 6.1866 27.9 6.3666 27.9ZM10.6173 35.08C10.1173 35.08 9.6773 34.9767 9.2973 34.77C8.92397 34.5633 8.63397 34.2667 8.4273 33.88C8.22064 33.4933 8.1173 33.0433 8.1173 32.53C8.1173 32.0167 8.22064 31.57 8.4273 31.19C8.63397 30.8033 8.92397 30.5067 9.2973 30.3C9.6773 30.0933 10.1173 29.99 10.6173 29.99C11.1173 29.99 11.554 30.0933 11.9273 30.3C12.3073 30.5067 12.5973 30.8033 12.7973 31.19C13.004 31.57 13.1073 32.0167 13.1073 32.53C13.1073 33.0433 13.004 33.4933 12.7973 33.88C12.5973 34.2667 12.3073 34.5633 11.9273 34.77C11.554 34.9767 11.1173 35.08 10.6173 35.08ZM10.6073 34.11C11.014 34.11 11.324 33.9767 11.5373 33.71C11.7506 33.4433 11.8573 33.05 11.8573 32.53C11.8573 32.0167 11.7506 31.6267 11.5373 31.36C11.324 31.0867 11.0173 30.95 10.6173 30.95C10.2173 30.95 9.9073 31.0867 9.6873 31.36C9.47397 31.6267 9.3673 32.0167 9.3673 32.53C9.3673 33.05 9.47397 33.4433 9.6873 33.71C9.90064 33.9767 10.2073 34.11 10.6073 34.11ZM16.65 34.13C16.9833 34.15 17.15 34.3 17.15 34.58C17.15 34.74 17.0833 34.8633 16.95 34.95C16.8233 35.03 16.64 35.0633 16.4 35.05L16.13 35.03C15.01 34.95 14.45 34.35 14.45 33.23V31.05H13.95C13.77 31.05 13.63 31.01 13.53 30.93C13.4366 30.85 13.39 30.7333 13.39 30.58C13.39 30.4267 13.4366 30.31 13.53 30.23C13.63 30.15 13.77 30.11 13.95 30.11H14.45V29.19C14.45 29.01 14.5066 28.8667 14.62 28.76C14.7333 28.6533 14.8866 28.6 15.08 28.6C15.2666 28.6 15.4166 28.6533 15.53 28.76C15.6433 28.8667 15.7 29.01 15.7 29.19V30.11H16.55C16.73 30.11 16.8666 30.15 16.96 30.23C17.06 30.31 17.11 30.4267 17.11 30.58C17.11 30.7333 17.06 30.85 16.96 30.93C16.8666 31.01 16.73 31.05 16.55 31.05H15.7V33.32C15.7 33.8133 15.9266 34.0767 16.38 34.11L16.65 34.13ZM18.4214 35.06C18.2414 35.06 18.0914 35.01 17.9714 34.91C17.858 34.8033 17.8014 34.6533 17.8014 34.46V30.6C17.8014 30.4067 17.858 30.26 17.9714 30.16C18.0914 30.06 18.2414 30.01 18.4214 30.01C18.6014 30.01 18.7514 30.06 18.8714 30.16C18.9914 30.26 19.0514 30.4067 19.0514 30.6V34.46C19.0514 34.6533 18.9914 34.8033 18.8714 34.91C18.7514 35.01 18.6014 35.06 18.4214 35.06ZM18.4214 29.12C18.1947 29.12 18.0147 29.06 17.8814 28.94C17.748 28.8133 17.6814 28.65 17.6814 28.45C17.6814 28.25 17.748 28.09 17.8814 27.97C18.0147 27.85 18.1947 27.79 18.4214 27.79C18.6414 27.79 18.818 27.85 18.9514 27.97C19.0914 28.09 19.1614 28.25 19.1614 28.45C19.1614 28.65 19.0947 28.8133 18.9614 28.94C18.828 29.06 18.648 29.12 18.4214 29.12ZM22.8104 28.88C22.5038 28.9 22.2804 28.9933 22.1404 29.16C22.0004 29.3267 21.9304 29.5667 21.9304 29.88V30.11H22.7804C23.1538 30.11 23.3404 30.2667 23.3404 30.58C23.3404 30.8933 23.1538 31.05 22.7804 31.05H21.9304V34.46C21.9304 34.6533 21.8704 34.8 21.7504 34.9C21.6371 35 21.4904 35.05 21.3104 35.05C21.1304 35.05 20.9804 35 20.8604 34.9C20.7404 34.8 20.6804 34.6533 20.6804 34.46V31.05H20.1804C19.8071 31.05 19.6204 30.8933 19.6204 30.58C19.6204 30.2667 19.8071 30.11 20.1804 30.11H20.6804V30.04C20.6804 29.4133 20.8438 28.9233 21.1704 28.57C21.5038 28.21 21.9704 28.0067 22.5704 27.96L22.8304 27.94C23.0971 27.92 23.2838 27.95 23.3904 28.03C23.5038 28.1033 23.5604 28.22 23.5604 28.38C23.5604 28.6667 23.3971 28.8267 23.0704 28.86L22.8104 28.88ZM27.5297 30.37C27.5831 30.25 27.6531 30.1633 27.7397 30.11C27.8331 30.05 27.9331 30.02 28.0397 30.02C28.1931 30.02 28.3297 30.0733 28.4497 30.18C28.5764 30.28 28.6397 30.4067 28.6397 30.56C28.6397 30.6333 28.6197 30.71 28.5797 30.79L25.8497 36.51C25.7364 36.7367 25.5597 36.85 25.3197 36.85C25.1664 36.85 25.0297 36.8 24.9097 36.7C24.7964 36.6067 24.7397 36.4867 24.7397 36.34C24.7397 36.2667 24.7597 36.1833 24.7997 36.09L25.4797 34.66L23.6197 30.79C23.5864 30.7233 23.5697 30.6467 23.5697 30.56C23.5697 30.4067 23.6331 30.2767 23.7597 30.17C23.8931 30.0633 24.0431 30.01 24.2097 30.01C24.3231 30.01 24.4264 30.04 24.5197 30.1C24.6131 30.1533 24.6864 30.24 24.7397 30.36L26.1397 33.45L27.5297 30.37Z" fill="#ACACAC"/>
<path d="M20.27 0.610189C20.1016 0.471887 19.8852 0.406129 19.6684 0.427382C19.4516 0.448635 19.252 0.555158 19.1137 0.723517C18.9754 0.891876 18.9097 1.10828 18.9309 1.32512C18.9522 1.54196 19.0587 1.74148 19.2271 1.87979C20.2099 2.68663 21.0008 3.7022 21.5422 4.85276C22.0837 6.00332 22.3622 7.26001 22.3575 8.53161C22.3575 8.74941 22.444 8.95829 22.598 9.1123C22.7521 9.26631 22.9609 9.35283 23.1787 9.35283C23.3965 9.35283 23.6054 9.26631 23.7594 9.1123C23.9134 8.95829 23.9999 8.74941 23.9999 8.53161C24.0049 7.01721 23.6728 5.52068 23.0277 4.15056C22.3825 2.78044 21.4405 1.57108 20.27 0.610189Z" fill="#ACACAC"/>
<path d="M8.77295 1.87979C8.94131 1.74148 9.04783 1.54196 9.06908 1.32512C9.09034 1.10828 9.02458 0.891876 8.88627 0.723517C8.74797 0.555158 8.54845 0.448635 8.33161 0.427382C8.11477 0.406129 7.89837 0.471887 7.73001 0.610189C6.55948 1.57108 5.61749 2.78044 4.97234 4.15056C4.3272 5.52068 3.99507 7.01721 4.00006 8.53161C4.00006 8.74941 4.08658 8.95829 4.24058 9.1123C4.39459 9.26631 4.60347 9.35283 4.82127 9.35283C5.03907 9.35283 5.24795 9.26631 5.40195 9.1123C5.55596 8.95829 5.64248 8.74941 5.64248 8.53161C5.63779 7.26001 5.91629 6.00332 6.45776 4.85276C6.99924 3.7022 7.7901 2.68663 8.77295 1.87979Z" fill="#ACACAC"/>
<path d="M20.715 12.8717V8.53159C20.7299 6.87121 20.14 5.26218 19.0554 4.00489C17.9708 2.7476 16.4658 1.928 14.8212 1.69909V0.821213C14.8212 0.603414 14.7347 0.394535 14.5807 0.240528C14.4266 0.0865204 14.2178 0 14 0C13.7822 0 13.5733 0.0865204 13.4193 0.240528C13.2653 0.394535 13.1788 0.603414 13.1788 0.821213V1.69909C11.5342 1.928 10.0291 2.7476 8.94453 4.00489C7.85997 5.26218 7.27005 6.87121 7.28491 8.53159V12.8717L6.15327 14.4246C5.94586 14.7087 5.82151 15.0448 5.7941 15.3955C5.76669 15.7461 5.83731 16.0975 5.99806 16.4103C6.15076 16.7154 6.38517 16.972 6.67517 17.1517C6.96517 17.3313 7.29936 17.4269 7.64049 17.4278H20.3578C20.6989 17.4269 21.0331 17.3313 21.3231 17.1517C21.6131 16.972 21.8475 16.7154 22.0002 16.4103C22.161 16.0973 22.2316 15.7457 22.204 15.3949C22.1765 15.0441 22.0519 14.7079 21.8442 14.4238L20.715 12.8717Z" fill="#ACACAC"/>
<path d="M14 21.3515C14.7262 21.3488 15.4309 21.1056 16.0041 20.6598C16.5774 20.2141 16.9867 19.591 17.1683 18.8879H10.8318C11.0133 19.591 11.4227 20.2141 11.9959 20.6598C12.5691 21.1056 13.2739 21.3488 14 21.3515Z" fill="#ACACAC"/>
</svg>
