<svg width="18" height="24" viewBox="0 0 18 24" fill="none" xmlns="http://www.w3.org/2000/svg">
<path d="M6 5.55713H11.588L16.5 0.307129H10.912L6 5.55713Z" fill="#F1543F"/>
<path fill-rule="evenodd" clip-rule="evenodd" d="M4.5 8.55713H12.75V4.80713H4.5V8.55713ZM11.8125 7.58311H5.4375V5.78119H11.8125V7.58311Z" fill="#F8B64C"/>
<path d="M11.25 5.55713H5.68591L0.75 0.307129H6.35897L11.25 5.55713Z" fill="#FF7058"/>
<path d="M8.625 23.5571C13.3885 23.5571 17.25 19.6956 17.25 14.9321C17.25 10.1687 13.3885 6.30713 8.625 6.30713C3.86154 6.30713 0 10.1687 0 14.9321C0 19.6956 3.86154 23.5571 8.625 23.5571Z" fill="#FFD15C"/>
<path d="M8.625 21.3071C5.11876 21.3071 2.25 18.4384 2.25 14.9321C2.25 11.4259 5.11876 8.55713 8.625 8.55713C12.1312 8.55713 15 11.4259 15 14.9321C15 18.4384 12.1312 21.3071 8.625 21.3071Z" fill="#F8B64C"/>
<path d="M8.62502 8.55713L9.96211 12.5571H14.25L10.7459 15.0571L12.083 19.0571L8.62502 16.5571L5.167 19.0571L6.50409 15.0571L3 12.5571H7.28789L8.62502 8.55713Z" fill="#FFD15C"/>
</svg>
