<svg width="24" height="21" viewBox="0 0 24 21" fill="none" xmlns="http://www.w3.org/2000/svg">
<path fill-rule="evenodd" clip-rule="evenodd" d="M19.7341 2.15888L23.7887 6.12877C24.0592 6.39356 24.0715 6.82491 23.8168 7.10466L21.1655 10.0152C20.9187 10.2861 20.5053 10.322 20.2155 10.0979L18.5693 8.82455L18.4025 19.9264C18.3967 20.3106 18.0836 20.619 17.6994 20.619H6.30067C5.91648 20.619 5.6034 20.3106 5.59764 19.9264L5.43081 8.82455L3.78465 10.0979C3.49478 10.322 3.08139 10.2861 2.83464 10.0152L0.183341 7.10466C-0.0715187 6.82491 -0.0592375 6.39356 0.211231 6.12877L4.26592 2.15888C5.21003 1.23441 6.45779 0.725297 7.7792 0.725297H8.1264C8.16264 0.695579 8.20239 0.669047 8.24547 0.64636L9.30714 0.0874693C9.65068 -0.0934682 10.076 0.0384849 10.2569 0.382126C10.3146 0.491766 10.3401 0.609704 10.3375 0.725344H13.6625C13.6599 0.609657 13.6854 0.491766 13.7431 0.382126C13.924 0.0385318 14.3492 -0.0935151 14.6928 0.0874693L15.7545 0.64636C15.7976 0.669047 15.8373 0.695579 15.8736 0.725297H16.2208C17.5422 0.725297 18.7899 1.23441 19.7341 2.15888ZM9.15348 10.8898C9.54179 10.8898 9.85661 10.575 9.85661 10.1866V4.87547C9.85661 4.48716 9.54179 4.17234 9.15348 4.17234C8.76517 4.17234 8.45036 4.48716 8.45036 4.87547V10.1866C8.45036 10.575 8.76517 10.8898 9.15348 10.8898ZM15.5496 8.63217C15.5496 9.87703 14.5369 10.8898 13.292 10.8898C12.0471 10.8898 11.0344 9.87703 11.0344 8.63217V6.42999C11.0344 5.18513 12.0471 4.17234 13.292 4.17234C14.5369 4.17234 15.5496 5.18508 15.5496 6.42999V8.63217ZM12.4406 6.42999C12.4406 5.96053 12.8225 5.57859 13.292 5.57859C13.7614 5.57859 14.1434 5.96053 14.1434 6.42999V8.63217C14.1434 9.10163 13.7615 9.48352 13.292 9.48352C12.8225 9.48352 12.4406 9.10163 12.4406 8.63217V6.42999Z" fill="#ACACAC"/>
</svg>
