<svg width="24" height="24" viewBox="0 0 24 24" fill="none" xmlns="http://www.w3.org/2000/svg">
<path fill-rule="evenodd" clip-rule="evenodd" d="M23.2969 1.73219H20.217C20.2282 1.39106 20.2344 1.04792 20.2344 0.70313C20.2344 0.314761 19.9195 0 19.5313 0H4.46887C4.08051 0 3.76575 0.314761 3.76575 0.70313C3.76575 1.04792 3.77179 1.39106 3.78296 1.73219H0.703125C0.314758 1.73219 0 2.04695 0 2.43532C0 5.58586 0.823425 8.55823 2.31848 10.8051C3.79633 13.0264 5.76489 14.3005 7.8913 14.4244C8.37341 14.949 8.88318 15.3768 9.414 15.7031V18.8281H8.23444C6.80841 18.8281 5.64844 19.9883 5.64844 21.4142V22.5937H5.59845C5.21008 22.5937 4.89532 22.9087 4.89532 23.2969C4.89532 23.6852 5.21008 24 5.59845 24H18.4016C18.7899 24 19.1047 23.6852 19.1047 23.2969C19.1047 22.9087 18.7899 22.5937 18.4016 22.5937H18.3516V21.4142C18.3516 19.9883 17.1914 18.8281 15.7656 18.8281H14.586V15.7031C15.1168 15.3768 15.6264 14.949 16.1085 14.4244C18.2351 14.3005 20.2035 13.0264 21.6815 10.8051C23.1766 8.55823 24 5.58586 24 2.43532C24 2.04695 23.6851 1.73219 23.2969 1.73219ZM3.48926 10.0262C2.25604 8.17279 1.53149 5.74901 1.42108 3.13845H3.86151C4.11511 6.34758 4.86841 9.31373 6.04578 11.6685C6.23328 12.0435 6.42938 12.3976 6.63281 12.7314C5.46332 12.2898 4.38098 11.3665 3.48926 10.0262ZM17.3672 12.7314C18.5367 12.2898 19.619 11.3665 20.5107 10.0262C21.744 8.17279 22.4685 5.74901 22.5789 3.13845H20.1385C19.8847 6.34758 19.1316 9.31373 17.9542 11.6685C17.7667 12.0435 17.5708 12.3976 17.3672 12.7314Z" fill="#ACACAC"/>
</svg>
